<?xml version="1.0" standalone="no"?>
<!DOCTYPE svg PUBLIC "-//W3C//DTD SVG 20010904//EN"
 "http://www.w3.org/TR/2001/REC-SVG-20010904/DTD/svg10.dtd">
<svg version="1.0" xmlns="http://www.w3.org/2000/svg"
 width="360.00000pt" height="360.00000pt" viewBox="0 0 36.000000 36.000000"
 preserveAspectRatio="xMidYMid meet">

<g transform="translate(0.000000,36.000000) scale(0.1,-0.1)"
fill="#000000" stroke="none">
<path d="M64 268 c-13 -46 -23 -62 -41 -69 -54 -20 -7 -29 157 -29 164 0 211
9 157 29 -18 7 -28 23 -41 69 l-16 60 -100 0 -100 0 -16 -60z"/>
<path d="M52 127 c-12 -13 -22 -32 -22 -43 0 -26 40 -64 66 -64 22 0 64 38 64
58 0 7 9 12 20 12 11 0 20 -6 20 -13 0 -20 43 -57 66 -57 26 0 64 40 64 66 0
26 -40 64 -67 64 -11 0 -27 -8 -36 -17 -20 -22 -71 -22 -95 0 -26 23 -55 21
-80 -6z"/>
</g>
</svg>
