<?xml version="1.0" standalone="no"?>
<!DOCTYPE svg PUBLIC "-//W3C//DTD SVG 20010904//EN"
 "http://www.w3.org/TR/2001/REC-SVG-20010904/DTD/svg10.dtd">
<svg version="1.0" xmlns="http://www.w3.org/2000/svg"
 width="503.000000pt" height="219.000000pt" viewBox="0 0 503.000000 219.000000"
 preserveAspectRatio="xMidYMid meet">

<g transform="translate(0.000000,219.000000) scale(0.100000,-0.100000)"
fill="#E0EEEE" stroke="none">
<path d="M2795 2040 c-12 -4 -47 -10 -80 -14 -33 -3 -70 -13 -85 -24 -20 -14
-31 -16 -52 -8 -36 13 -94 -13 -133 -60 -16 -19 -34 -34 -40 -34 -17 0 -55
-44 -55 -63 0 -23 -28 -67 -59 -93 -21 -18 -26 -32 -28 -75 -1 -30 3 -64 10
-77 8 -17 8 -25 -1 -34 -7 -7 -12 -20 -12 -29 0 -10 -9 -19 -21 -21 -33 -5
-58 -46 -69 -112 -5 -32 -16 -66 -23 -75 -28 -31 -45 -77 -40 -104 4 -20 1
-27 -11 -27 -9 0 -28 -24 -45 -59 -33 -65 -16 -56 -211 -106 -52 -13 -133 -31
-180 -39 -211 -38 -321 -71 -445 -134 -27 -14 -97 -46 -155 -72 -262 -115
-365 -182 -529 -342 -85 -84 -313 -341 -363 -411 l-19 -27 49 0 50 0 118 142
c253 303 398 424 650 544 66 30 175 84 244 118 148 75 242 108 365 131 95 17
294 60 333 71 16 5 22 2 22 -9 0 -25 41 -33 58 -11 21 29 68 126 76 157 11 48
36 15 36 -47 0 -84 24 -138 93 -209 71 -71 141 -112 245 -142 58 -17 87 -33
143 -80 87 -72 231 -229 369 -400 99 -123 232 -265 247 -265 8 0 -25 46 -74
103 -49 56 -124 146 -166 199 -108 134 -186 221 -273 304 l-75 70 43 -2 c58
-4 192 13 251 32 54 18 59 29 6 14 -65 -19 -212 -32 -268 -24 -54 8 -52 8 54
15 277 16 456 87 504 200 12 26 21 61 21 78 0 17 5 31 11 31 12 0 5 -80 -17
-187 -16 -74 -13 -93 10 -93 8 0 19 -7 26 -15 9 -11 17 -12 34 -4 20 10 20 10
2 -5 -16 -13 -17 -19 -8 -28 7 -7 12 -9 12 -5 0 4 15 0 33 -9 19 -10 27 -19
19 -22 -10 -3 -8 -8 5 -19 17 -13 16 -13 -5 -3 -12 6 -20 15 -17 20 3 5 -4 14
-15 20 -26 14 -25 6 2 -32 11 -17 22 -41 23 -53 3 -19 -3 -24 -36 -29 -46 -7
-53 -33 -11 -42 15 -3 38 -10 51 -15 13 -5 26 -7 29 -5 3 3 -6 10 -19 15 -13
5 -17 10 -9 10 8 0 20 -3 26 -7 12 -8 54 -122 54 -147 0 -8 4 -15 8 -15 7 0
11 -16 12 -52 0 -7 -3 -77 -6 -155 l-7 -143 26 0 c24 0 25 3 34 87 15 156 8
303 -17 364 -12 30 -26 65 -32 79 -47 116 -120 364 -125 423 -5 52 -3 68 5 63
7 -4 12 -13 12 -21 0 -7 29 -60 63 -117 35 -57 79 -128 97 -158 19 -30 42 -66
52 -79 10 -13 16 -31 13 -40 -6 -20 5 -36 25 -36 11 0 15 -12 16 -48 0 -26 7
-53 14 -60 10 -10 11 -8 6 10 -4 12 -2 24 4 28 11 7 13 0 16 -60 1 -22 2 -50
3 -62 0 -13 5 -23 11 -23 5 0 7 7 4 15 -4 8 -3 23 0 32 6 15 8 15 16 3 5 -8 7
-25 4 -37 -4 -13 -3 -31 0 -40 6 -15 8 -15 16 -3 9 13 10 13 10 0 0 -8 3 -26
6 -40 4 -20 3 -22 -5 -10 -9 12 -11 10 -11 -12 0 -29 14 -38 24 -15 3 6 3 -12
0 -40 -5 -44 -3 -53 10 -53 9 0 16 -8 16 -21 0 -11 -4 -17 -10 -14 -5 3 -10
-3 -10 -14 0 -22 19 -40 21 -19 0 7 5 0 10 -17 5 -19 5 -31 -1 -33 -6 -2 -10
-11 -10 -20 0 -15 2 -15 10 -2 6 10 10 11 10 3 0 -7 4 -13 9 -13 11 0 7 32
-25 192 -29 145 -78 274 -147 386 -30 48 -91 147 -137 220 -45 73 -80 135 -77
138 9 9 59 -21 135 -81 71 -56 74 -57 122 -50 47 7 49 6 64 -27 19 -40 78 -73
166 -94 36 -8 87 -30 115 -48 28 -19 106 -63 173 -99 186 -97 197 -106 287
-250 178 -284 177 -282 223 -285 23 -2 42 0 42 4 0 3 -24 38 -54 78 -29 39
-75 105 -101 146 -102 159 -144 202 -257 265 -121 67 -222 130 -261 162 -26
21 -99 46 -210 74 -39 10 -53 19 -72 50 -32 49 -38 52 -104 50 -54 -1 -59 1
-131 55 -41 31 -94 66 -117 77 -47 23 -63 60 -43 98 15 28 16 109 1 137 -8 15
-7 29 4 56 8 19 15 49 15 67 0 34 35 88 43 67 7 -21 20 60 13 87 -4 14 -13 25
-21 25 -11 0 -12 5 -5 26 7 18 6 33 -5 55 -10 19 -14 41 -9 64 5 27 2 37 -15
51 -12 10 -21 30 -21 44 0 31 -8 44 -37 58 -12 7 -24 26 -28 43 -5 21 -16 35
-37 43 -28 12 -50 39 -64 79 -7 20 -20 22 -27 5 -3 -10 -12 -9 -34 4 -30 17
-151 47 -202 50 -15 1 -55 7 -91 15 -74 15 -69 14 -95 3z m451 -128 c-4 -3
-14 2 -24 12 -16 18 -16 18 6 6 13 -6 21 -14 18 -18z m-719 -152 c7 -10 29
-22 50 -26 l37 -7 -26 -22 c-25 -21 -25 -24 -11 -44 13 -20 13 -24 -1 -40 -22
-24 -21 -31 15 -74 l31 -38 24 26 c27 29 32 30 58 10 26 -20 39 -19 67 4 l24
19 -28 13 c-32 15 -34 25 -6 48 21 17 21 17 -17 43 -28 20 -42 25 -55 17 -24
-12 -27 -12 -38 9 -8 15 -4 17 37 14 26 -1 70 -5 98 -8 38 -5 59 -2 85 12 19
10 41 19 49 21 32 7 151 3 168 -6 9 -5 25 -12 35 -15 20 -6 23 -26 4 -26 -8 0
-22 -9 -32 -20 -15 -17 -16 -24 -7 -45 6 -14 18 -25 26 -25 8 0 23 -15 33 -33
18 -29 18 -35 5 -55 -11 -17 -12 -31 -4 -62 7 -27 7 -42 0 -46 -6 -4 -8 -24
-5 -45 3 -22 2 -41 -3 -44 -4 -2 -10 -29 -12 -60 -5 -61 -12 -75 -30 -57 -9 9
-9 12 0 12 8 0 11 18 9 55 -1 30 1 55 5 55 4 0 5 7 1 15 -3 9 -11 14 -17 12
-6 -2 -29 4 -51 14 -23 11 -51 16 -70 12 l-30 -5 30 26 c17 14 33 25 36 26 3
0 4 11 2 25 -6 27 -37 51 -79 60 l-29 6 30 -14 c17 -8 39 -22 50 -31 19 -16
19 -17 -15 -10 -19 3 -49 12 -66 18 l-32 11 24 28 c33 38 84 47 113 18 12 -12
16 -21 9 -21 -16 -1 7 -15 40 -24 21 -7 21 -6 12 21 -20 54 -33 72 -65 88 -56
26 -81 20 -140 -36 -111 -105 -261 -108 -315 -6 -13 25 -36 52 -50 60 -24 14
-29 14 -68 -3 -31 -14 -47 -29 -58 -56 -8 -20 -13 -38 -10 -41 7 -7 46 7 46
17 0 5 7 7 15 4 8 -4 15 -1 15 5 0 19 29 12 72 -16 40 -27 40 -28 17 -34 -13
-4 -43 -7 -67 -8 -40 -1 -43 -3 -37 -23 4 -13 18 -33 32 -46 33 -30 67 -23
111 24 26 27 36 33 50 24 15 -9 15 -10 -5 -16 -12 -3 -29 -16 -37 -29 -8 -12
-27 -26 -43 -30 -15 -3 -31 -12 -35 -18 -5 -8 -17 -3 -36 16 -39 37 -109 49
-129 22 -19 -28 -17 -32 25 -40 29 -6 33 -9 17 -14 -30 -9 -29 -30 3 -37 55
-11 69 -23 22 -18 -42 4 -41 3 20 -16 79 -24 75 -23 60 -5 -15 18 -7 19 22 4
19 -10 20 -9 15 17 -10 52 22 82 67 64 17 -6 26 -5 28 2 3 7 15 5 36 -6 18 -9
32 -13 32 -8 0 5 -16 16 -36 26 -20 9 -34 19 -31 23 4 3 29 -6 56 -20 27 -15
51 -22 53 -17 2 5 23 -8 48 -30 25 -22 41 -40 35 -40 -5 0 1 -7 13 -16 13 -9
21 -22 18 -30 -3 -8 -1 -14 4 -14 12 0 30 34 30 58 0 27 -38 72 -61 72 -10 0
-19 6 -19 14 0 8 -13 28 -30 44 -24 25 -27 31 -14 36 24 9 54 7 54 -4 0 -15
52 -61 82 -72 16 -5 25 -14 22 -19 -3 -5 7 -9 23 -10 25 0 26 -1 8 -9 -17 -7
-16 -9 10 -10 30 -2 30 -2 5 -10 -17 -5 -19 -8 -7 -9 9 -1 16 -6 15 -13 -3
-11 1 -13 35 -17 9 -1 9 -3 -2 -10 -9 -6 -10 -11 -2 -15 6 -4 9 -12 6 -17 -4
-5 2 -9 12 -9 11 0 28 -7 39 -16 18 -15 18 -15 -3 -9 -31 9 -29 -1 5 -20 l27
-16 -40 6 c-46 6 -29 -9 22 -20 28 -5 32 -4 27 9 -3 9 -2 16 3 16 15 0 33 -23
33 -41 0 -26 46 -51 86 -46 57 8 63 19 60 108 -3 81 3 96 22 57 l11 -23 0 23
c1 14 5 21 12 16 6 -3 9 -19 7 -35 -3 -17 -1 -26 4 -21 15 15 16 71 2 76 -14
5 -20 36 -8 36 4 0 13 -8 21 -17 14 -17 14 -17 9 0 -3 9 -9 25 -12 35 -5 14
-3 13 11 -3 12 -14 15 -33 12 -65 l-5 -45 16 32 c13 27 13 39 3 73 -15 50 -35
50 -69 0 l-25 -35 7 48 c8 64 11 67 55 67 71 0 95 -59 62 -155 -12 -38 -16
-64 -10 -69 5 -6 9 -31 9 -57 0 -56 -26 -94 -70 -102 -38 -8 -58 0 -66 26 -6
19 -9 17 -20 -18 -30 -89 -72 -146 -150 -206 -106 -81 -330 -120 -494 -85
-112 24 -145 35 -221 76 -93 50 -150 111 -173 182 -23 74 -14 121 47 243 27
54 51 115 53 135 10 103 71 279 93 266 8 -5 46 68 46 87 0 9 44 36 60 37 6 0
16 -9 22 -20z m141 -105 c9 -11 36 -36 58 -56 38 -34 40 -37 22 -48 -23 -14
-28 -11 -105 63 -57 54 -63 69 -35 85 13 8 20 6 29 -7 7 -9 21 -26 31 -37z
m73 6 l24 -19 -29 -8 c-22 -5 -32 -3 -42 11 -27 36 8 48 47 16z m679 -9 c0
-15 -2 -15 -10 -2 -13 20 -13 33 0 25 6 -3 10 -14 10 -23z m-781 -57 c23 -25
23 -26 5 -46 l-19 -21 -22 29 c-26 32 -29 49 -10 56 19 8 21 8 46 -18z m-398
-136 c-6 -13 -20 -35 -31 -49 l-22 -25 6 39 c6 42 34 82 48 68 5 -5 4 -19 -1
-33z m301 -19 c-18 -17 -36 -30 -42 -30 -14 0 -66 49 -52 50 7 0 15 -7 18 -15
9 -23 44 -19 44 5 0 16 7 20 33 20 l32 -1 -33 -29z m379 -1 c19 -6 40 -13 48
-15 11 -4 10 -8 -5 -19 -23 -17 -58 -19 -87 -4 -29 16 -28 14 -21 33 7 19 19
20 65 5z m-157 -75 c3 -7 -15 1 -40 17 -24 17 -44 33 -44 35 0 10 79 -39 84
-52z m-589 -174 l-7 -25 -19 25 c-21 29 -25 70 -7 88 10 10 15 5 26 -25 7 -21
10 -49 7 -63z m882 54 c-3 -3 -12 -4 -19 -1 -8 3 -5 6 6 6 11 1 17 -2 13 -5z
m302 -503 c9 -6 6 -8 -13 -8 -14 0 -23 3 -20 8 7 11 15 11 33 0z m19 -40 c3
-8 -1 -12 -9 -9 -7 2 -15 10 -17 17 -3 8 1 12 9 9 7 -2 15 -10 17 -17z m48
-119 c-4 -3 -14 2 -24 12 -16 18 -16 18 6 6 13 -6 21 -14 18 -18z m-53 -39
c-7 -2 -19 -2 -25 0 -7 3 -2 5 12 5 14 0 19 -2 13 -5z"/>
<path d="M2445 1710 c-4 -6 5 -10 21 -10 15 0 36 -7 46 -17 10 -9 18 -11 18
-5 0 27 -71 54 -85 32z"/>
<path d="M3007 1679 c18 -5 35 -14 38 -19 3 -6 12 -10 18 -10 7 1 1 10 -12 20
-13 11 -35 20 -50 19 -25 -1 -24 -1 6 -10z"/>
<path d="M2424 1659 c-4 -8 1 -9 15 -4 24 7 81 -11 81 -27 0 -5 5 -6 12 -2 19
12 -30 44 -68 44 -18 0 -36 -5 -40 -11z"/>
<path d="M2811 1632 c-1 -52 22 -54 27 -3 2 20 -1 31 -6 27 -6 -3 -13 0 -15 6
-3 7 -6 -6 -6 -30z"/>
<path d="M2900 1642 c-18 -11 -36 -25 -39 -33 -3 -9 4 -8 24 5 62 41 114 39
163 -6 16 -16 22 -18 22 -7 0 21 -65 59 -103 59 -18 0 -48 -8 -67 -18z"/>
<path d="M2441 1519 c-35 -14 -23 -18 29 -9 25 4 40 8 33 9 -6 0 -17 3 -25 5
-7 3 -24 0 -37 -5z"/>
<path d="M3020 1392 c0 -5 16 -16 36 -25 19 -10 33 -13 29 -7 -9 14 -65 42
-65 32z"/>
<path d="M2576 1311 c-9 -14 5 -41 20 -41 20 0 30 30 13 41 -18 11 -26 11 -33
0z"/>
<path d="M2680 1292 c0 -18 18 -32 42 -32 5 0 8 10 6 23 -4 29 -48 38 -48 9z"/>
<path d="M2390 1266 c41 -17 68 -20 55 -7 -6 5 -28 12 -50 15 l-40 6 35 -14z"/>
<path d="M2395 1240 c28 -12 37 -12 30 0 -3 6 -16 10 -28 9 -21 0 -21 -1 -2
-9z"/>
<path d="M2419 1202 c-30 -8 -94 -60 -85 -69 3 -4 19 5 34 20 15 14 47 30 72
36 54 13 168 13 228 2 33 -6 41 -6 32 3 -12 12 -239 19 -281 8z"/>
<path d="M2720 1185 c0 -2 26 -18 59 -35 57 -30 141 -103 141 -122 0 -5 -3 -8
-7 -6 -5 2 -34 16 -66 31 -135 64 -326 93 -447 67 -33 -7 -60 -17 -60 -23 0
-5 10 -6 23 -3 51 15 115 18 135 7 12 -6 88 -19 169 -28 142 -15 151 -17 230
-59 46 -24 85 -44 88 -44 3 0 -17 29 -45 64 -31 40 -74 79 -113 103 -55 35
-107 58 -107 48z"/>
<path d="M3297 1183 c-4 -3 -7 -19 -7 -35 0 -22 5 -28 22 -28 20 0 20 1 4 19
-9 10 -14 25 -10 35 6 17 2 21 -9 9z"/>
<path d="M3020 1141 c24 -14 66 -25 55 -13 -5 5 -23 12 -40 16 -20 4 -25 3
-15 -3z"/>
<path d="M3040 1100 c8 -5 20 -10 25 -10 6 0 3 5 -5 10 -8 5 -19 10 -25 10 -5
0 -3 -5 5 -10z"/>
<path d="M2350 1061 c0 -18 51 -53 106 -73 46 -17 89 -22 197 -26 145 -5 295
5 281 17 -5 5 -49 4 -99 0 -101 -10 -253 -3 -335 14 -30 6 -76 26 -102 43 -26
18 -48 29 -48 25z"/>
<path d="M2528 944 c-34 -10 -18 -21 40 -27 31 -3 68 -9 82 -12 20 -6 22 -5
10 5 -22 17 35 4 83 -19 20 -10 37 -14 37 -9 0 5 -25 21 -56 35 -55 25 -156
39 -196 27z"/>
<path d="M2070 1024 c0 -5 7 -19 15 -30 8 -10 15 -14 15 -8 0 5 -7 19 -15 30
-8 10 -15 14 -15 8z"/>
<path d="M2050 973 c0 -4 5 -15 10 -23 8 -13 10 -13 10 2 0 9 -4 20 -10 23 -5
3 -10 3 -10 -2z"/>
<path d="M2110 959 c0 -8 7 -24 16 -35 14 -18 15 -18 8 6 -8 31 -24 50 -24 29z"/>
<path d="M2020 943 c0 -5 12 -25 26 -44 14 -19 32 -47 41 -63 15 -29 15 -31
-13 -53 -16 -13 -24 -23 -18 -23 6 0 21 12 35 26 l24 25 -30 55 c-29 54 -65
97 -65 77z"/>
<path d="M2080 924 c0 -7 9 -22 20 -35 25 -31 26 -12 0 21 -11 14 -20 20 -20
14z"/>
<path d="M2161 885 c-1 -14 37 -61 43 -54 3 2 -6 18 -19 34 -13 17 -24 26 -24
20z"/>
<path d="M1578 863 c12 -2 32 -2 45 0 12 2 2 4 -23 4 -25 0 -35 -2 -22 -4z"/>
<path d="M1480 840 c0 -6 30 -10 67 -10 36 0 64 2 62 4 -11 9 -129 15 -129 6z"/>
<path d="M2130 846 c0 -2 7 -9 15 -16 13 -11 14 -10 9 4 -5 14 -24 23 -24 12z"/>
<path d="M2117 777 c-26 -18 -47 -36 -47 -40 0 -4 21 8 47 28 42 32 48 34 63
20 19 -17 34 -20 25 -5 -18 30 -42 29 -88 -3z"/>
<path d="M2239 786 c14 -14 27 -26 29 -26 10 0 -26 44 -39 48 -8 3 -3 -7 10
-22z"/>
<path d="M1224 754 c3 -8 2 -13 -3 -10 -5 3 -14 -1 -21 -9 -7 -8 -19 -15 -27
-15 -8 0 -11 -4 -8 -10 4 -6 -6 -10 -22 -10 -16 0 -38 -7 -49 -15 -10 -8 -29
-15 -41 -15 -14 0 -23 -6 -23 -15 0 -8 -6 -14 -12 -12 -7 1 -13 -5 -13 -13 0
-8 -4 -18 -10 -23 -5 -4 30 -6 78 -3 l89 5 112 -112 c122 -122 239 -272 318
-409 28 -49 55 -88 60 -88 14 0 -41 95 -125 217 -75 110 -212 270 -295 345
-33 29 -47 48 -40 51 7 3 3 6 -9 6 -12 1 -24 5 -27 9 -3 5 18 5 45 2 33 -4 59
-2 75 6 13 7 44 14 69 16 55 4 49 24 -10 34 -68 10 -51 12 77 9 83 -2 101 -1
56 3 -73 8 -73 8 -82 39 -6 17 -2 22 16 26 13 2 -24 5 -81 6 -89 1 -102 -1
-97 -15z m121 -4 c23 -6 16 -8 -32 -8 -35 1 -63 5 -63 9 0 11 53 10 95 -1z
m-42 -87 c-7 -2 -19 -2 -25 0 -7 3 -2 5 12 5 14 0 19 -2 13 -5z m-66 -19 c-3
-3 -12 -4 -19 -1 -8 3 -5 6 6 6 11 1 17 -2 13 -5z m-127 -14 c20 -6 16 -8 -23
-9 -30 -1 -46 3 -42 9 7 11 29 11 65 0z"/>
<path d="M2286 623 c161 -159 258 -280 325 -408 55 -104 126 -215 138 -215 5
0 -8 28 -30 63 -22 34 -63 102 -91 152 -80 143 -180 270 -331 418 -77 75 -145
137 -151 137 -6 0 57 -66 140 -147z"/>
<path d="M1961 742 c-47 -23 -60 -46 -39 -69 9 -10 18 -27 20 -38 9 -51 110
-5 116 53 2 18 -1 32 -6 32 -5 0 -7 -11 -5 -24 4 -17 -3 -29 -22 -45 -29 -22
-65 -28 -65 -11 0 6 5 10 10 10 6 0 10 5 10 10 0 6 -8 10 -19 10 -10 0 -24 6
-30 14 -17 20 9 43 59 51 22 4 40 11 40 16 0 14 -31 10 -69 -9z"/>
<path d="M2230 735 c7 -8 17 -15 22 -15 6 0 5 7 -2 15 -7 8 -17 15 -22 15 -6
0 -5 -7 2 -15z"/>
<path d="M2310 715 c13 -14 26 -23 28 -20 7 7 -29 45 -41 45 -6 0 0 -11 13
-25z"/>
<path d="M2270 703 c0 -13 29 -38 35 -31 3 3 -4 13 -15 23 -11 10 -20 13 -20
8z"/>
<path d="M2360 677 c0 -8 7 -17 15 -21 8 -3 15 -2 15 3 0 5 -7 14 -15 21 -12
10 -15 10 -15 -3z"/>
<path d="M1423 673 c-34 -7 -28 -20 7 -15 17 2 30 8 30 13 0 5 -3 8 -7 8 -5
-1 -18 -4 -30 -6z"/>
<path d="M1528 663 c6 -2 18 -2 25 0 6 3 1 5 -13 5 -14 0 -19 -2 -12 -5z"/>
<path d="M2335 630 c10 -11 20 -18 23 -15 7 6 -18 35 -31 35 -5 0 -2 -9 8 -20z"/>
<path d="M1528 633 c12 -2 30 -2 40 0 9 3 -1 5 -23 4 -22 0 -30 -2 -17 -4z"/>
<path d="M2420 623 c0 -12 38 -48 45 -41 3 2 -6 15 -20 28 -14 13 -25 19 -25
13z"/>
<path d="M1323 610 c-34 -3 -65 -9 -70 -14 -5 -5 0 -6 10 -3 10 4 51 7 89 7
39 0 68 3 64 7 -9 9 -20 10 -93 3z"/>
<path d="M958 603 c7 -3 16 -2 19 1 4 3 -2 6 -13 5 -11 0 -14 -3 -6 -6z"/>
<path d="M2380 593 c0 -12 38 -48 45 -41 3 2 -6 15 -20 28 -14 13 -25 19 -25
13z"/>
<path d="M1083 573 c9 -2 25 -2 35 0 9 3 1 5 -18 5 -19 0 -27 -2 -17 -5z"/>
<path d="M1309 569 c-10 -6 -4 -9 19 -9 17 0 32 2 32 4 0 9 -39 13 -51 5z"/>
<path d="M2510 525 c13 -14 25 -23 27 -21 8 8 -22 46 -36 46 -10 0 -7 -8 9
-25z"/>
<path d="M2440 533 c0 -13 29 -38 35 -31 3 3 -4 13 -15 23 -11 10 -20 13 -20
8z"/>
<path d="M1388 523 c7 -3 16 -2 19 1 4 3 -2 6 -13 5 -11 0 -14 -3 -6 -6z"/>
<path d="M3274 516 c-11 -6 -19 -17 -16 -24 2 -7 -6 -21 -19 -31 -15 -12 -19
-20 -11 -25 7 -4 12 -3 12 3 0 6 7 8 15 5 8 -4 15 -1 15 5 0 6 8 8 18 4 14 -5
13 -3 -3 11 -19 16 -19 17 15 11 28 -5 32 -4 20 5 -12 9 -8 11 18 6 45 -8 40
1 -8 14 -22 6 -38 15 -35 20 7 12 6 12 -21 -4z"/>
<path d="M4088 523 c7 -3 16 -2 19 1 4 3 -2 6 -13 5 -11 0 -14 -3 -6 -6z"/>
<path d="M868 513 c7 -3 16 -2 19 1 4 3 -2 6 -13 5 -11 0 -14 -3 -6 -6z"/>
<path d="M928 513 c6 -2 18 -2 25 0 6 3 1 5 -13 5 -14 0 -19 -2 -12 -5z"/>
<path d="M4166 505 c-3 -9 0 -15 8 -15 19 0 46 -44 36 -59 -5 -9 -10 -9 -14
-3 -3 6 -3 12 1 15 5 2 2 2 -4 1 -7 -2 -13 1 -13 6 0 6 -4 10 -10 10 -20 0 2
-27 45 -52 25 -15 45 -33 45 -39 0 -8 -6 -7 -17 3 -10 8 -31 22 -48 32 -29 17
-29 17 -8 -1 11 -10 37 -31 57 -46 20 -15 43 -42 53 -60 21 -41 80 -213 88
-261 6 -32 25 -52 25 -26 0 15 -60 197 -81 247 -11 25 -17 48 -14 51 2 3 23
-7 45 -22 43 -28 55 -32 44 -15 -3 6 8 3 26 -6 47 -24 48 -11 1 21 -23 14 -41
31 -41 37 0 5 7 4 15 -3 9 -7 18 -11 20 -8 3 2 -16 26 -42 51 -49 49 -40 67 9
20 15 -14 30 -24 33 -21 8 7 -92 82 -137 104 -21 10 -38 21 -38 25 0 7 -54 29
-70 29 -5 0 -10 -7 -14 -15z m93 -36 c39 -14 40 -24 2 -24 -16 0 -27 3 -24 8
2 4 -1 7 -6 7 -6 0 -11 5 -11 10 0 12 0 12 39 -1z m41 -124 c7 -9 8 -15 2 -15
-5 0 -12 7 -16 15 -3 8 -4 15 -2 15 2 0 9 -7 16 -15z m80 -41 c0 -2 -9 0 -20
6 -11 6 -20 13 -20 16 0 2 9 0 20 -6 11 -6 20 -13 20 -16z"/>
<path d="M2505 450 c10 -11 20 -18 23 -15 7 6 -18 35 -31 35 -5 0 -2 -9 8 -20z"/>
<path d="M2572 450 c7 -11 16 -20 21 -20 4 0 3 9 -3 20 -6 11 -15 20 -20 20
-6 0 -5 -9 2 -20z"/>
<path d="M1055 420 c28 -12 37 -12 30 0 -3 6 -16 10 -28 9 -21 0 -21 -1 -2 -9z"/>
<path d="M1836 417 c3 -10 9 -15 12 -12 3 3 0 11 -7 18 -10 9 -11 8 -5 -6z"/>
<path d="M2550 404 c0 -5 7 -19 15 -30 8 -10 15 -14 15 -8 0 5 -7 19 -15 30
-8 10 -15 14 -15 8z"/>
<path d="M2622 375 c6 -14 15 -25 20 -25 12 0 9 12 -6 33 -19 25 -27 21 -14
-8z"/>
<path d="M4145 388 c11 -6 39 -24 63 -40 23 -16 42 -27 42 -24 0 8 -103 76
-115 76 -5 0 -1 -6 10 -12z"/>
<path d="M960 380 c0 -12 77 -12 105 0 14 6 2 9 -42 9 -36 1 -63 -3 -63 -9z"/>
<path d="M3180 361 c0 -10 30 -24 37 -17 3 2 -5 9 -16 16 -12 6 -21 7 -21 1z"/>
<path d="M891 335 c-24 -23 -24 -24 -3 -22 11 0 18 5 16 9 -3 4 4 8 16 8 12 0
19 -4 16 -9 -12 -19 42 -29 120 -21 43 4 70 8 59 9 -12 0 -25 5 -30 10 -6 5
-26 11 -45 14 -19 2 -4 4 33 4 37 1 71 4 74 7 4 3 -29 6 -73 7 -43 0 -97 2
-119 4 -32 3 -45 -1 -64 -20z m134 -15 c16 -7 13 -9 -17 -9 -21 -1 -38 4 -38
9 0 12 27 12 55 0z"/>
<path d="M3163 329 c22 -11 41 -18 44 -15 6 6 -52 36 -69 36 -7 -1 4 -10 25
-21z"/>
<path d="M2600 330 c0 -8 5 -22 10 -30 9 -13 10 -13 10 0 0 8 -5 22 -10 30 -9
13 -10 13 -10 0z"/>
<path d="M4170 320 c0 -5 5 -10 11 -10 5 0 7 5 4 10 -3 6 -8 10 -11 10 -2 0
-4 -4 -4 -10z"/>
<path d="M2660 313 c1 -10 39 -60 40 -51 0 14 -23 58 -32 58 -4 0 -8 -3 -8 -7z"/>
<path d="M3710 288 c0 -16 5 -28 10 -28 13 0 13 20 0 40 -8 12 -10 9 -10 -12z"/>
<path d="M3210 269 c21 -17 22 -20 5 -15 -17 5 -16 2 6 -16 14 -13 41 -35 60
-50 20 -17 26 -25 14 -21 -18 6 -18 4 4 -20 30 -33 45 -35 30 -5 -26 49 -28
57 -19 60 6 2 1 9 -11 17 -19 11 -21 11 -16 -4 6 -14 3 -13 -19 4 -14 11 -25
23 -25 28 -1 13 -31 43 -43 43 -6 0 0 -10 14 -21z"/>
<path d="M3260 276 c0 -2 8 -10 18 -17 15 -13 16 -12 3 4 -13 16 -21 21 -21
13z"/>
<path d="M1890 254 c1 -10 7 -64 14 -119 8 -55 12 -108 10 -117 -1 -10 1 -18
7 -18 13 0 11 92 -6 184 -13 75 -26 110 -25 70z"/>
<path d="M2640 263 c0 -5 7 -18 15 -29 12 -16 14 -16 15 -3 0 9 -7 22 -15 29
-8 7 -15 8 -15 3z"/>
<path d="M4341 257 c28 -21 59 -36 59 -29 0 5 -11 14 -25 20 -24 11 -44 16
-34 9z"/>
<path d="M4413 245 c0 -8 4 -12 9 -9 5 3 15 0 23 -6 8 -7 15 -9 15 -5 0 8 -31
34 -41 35 -3 0 -6 -7 -6 -15z"/>
<path d="M2720 224 c0 -14 27 -50 33 -44 3 3 -3 16 -13 30 -11 14 -20 20 -20
14z"/>
<path d="M3731 203 c-1 -12 4 -25 9 -28 12 -7 12 2 0 30 -8 19 -9 19 -9 -2z"/>
<path d="M4440 191 c19 -17 40 -31 45 -31 11 0 -29 35 -60 51 -11 6 -4 -3 15
-20z"/>
<path d="M720 200 c-6 -4 7 -7 30 -8 22 -1 40 0 40 2 0 7 -60 12 -70 6z"/>
<path d="M4360 206 c0 -2 17 -15 38 -27 60 -38 68 -42 42 -19 -27 22 -80 53
-80 46z"/>
<path d="M2680 194 c0 -5 7 -19 15 -30 8 -10 15 -14 15 -8 0 5 -7 19 -15 30
-8 10 -15 14 -15 8z"/>
<path d="M3250 185 c7 -8 17 -15 22 -15 6 0 5 7 -2 15 -7 8 -17 15 -22 15 -6
0 -5 -7 2 -15z"/>
<path d="M2772 140 c7 -11 16 -20 21 -20 4 0 3 9 -3 20 -6 11 -15 20 -20 20
-6 0 -5 -9 2 -20z"/>
<path d="M3261 154 c6 -16 89 -87 89 -77 0 5 -21 26 -46 48 -26 21 -45 34 -43
29z"/>
<path d="M2720 125 c0 -15 18 -40 24 -34 3 3 -1 14 -9 25 -8 10 -14 15 -15 9z"/>
<path d="M3741 123 c0 -5 4 -17 9 -28 8 -18 9 -17 9 8 1 15 -3 27 -9 27 -5 0
-10 -3 -9 -7z"/>
<path d="M2810 82 c0 -5 7 -15 15 -22 8 -7 15 -8 15 -2 0 5 -7 15 -15 22 -8 7
-15 8 -15 2z"/>
<path d="M2760 64 c0 -5 7 -19 15 -30 8 -10 15 -14 15 -8 0 5 -7 19 -15 30 -8
10 -15 14 -15 8z"/>
<path d="M3325 40 c16 -16 31 -28 33 -25 7 7 -39 55 -52 55 -5 0 3 -13 19 -30z"/>
<path d="M3762 20 c0 -14 2 -19 5 -12 2 6 2 18 0 25 -3 6 -5 1 -5 -13z"/>
<path d="M2860 21 c0 -5 5 -13 10 -16 6 -3 10 -2 10 4 0 5 -4 13 -10 16 -5 3
-10 2 -10 -4z"/>
</g>
</svg>
