<?xml version="1.0" standalone="no"?>
<!DOCTYPE svg PUBLIC "-//W3C//DTD SVG 20010904//EN"
 "http://www.w3.org/TR/2001/REC-SVG-20010904/DTD/svg10.dtd">
<svg version="1.0" xmlns="http://www.w3.org/2000/svg"
 width="182.000000pt" height="182.000000pt" viewBox="0 0 182.000000 182.000000"
 preserveAspectRatio="xMidYMid meet">

<g transform="translate(0.000000,182.000000) scale(0.100000,-0.100000)"
fill=" #1877F2" stroke="none">
<path d="M755 1640 c-11 -5 -36 -9 -55 -9 -19 -1 -50 -10 -68 -21 -18 -11 -49
-20 -70 -20 -68 -1 -150 -53 -166 -106 -4 -12 -20 -27 -37 -34 -43 -18 -59
-57 -59 -142 -1 -48 -6 -80 -15 -92 -8 -11 -15 -38 -15 -61 0 -22 -6 -65 -14
-95 -13 -48 -13 -58 0 -77 8 -12 14 -31 14 -42 0 -10 7 -32 15 -47 17 -33 18
-20 5 46 -21 113 79 187 138 100 20 -29 23 -42 17 -80 -14 -94 -22 -175 -17
-180 3 -3 7 1 9 8 7 19 23 14 23 -8 0 -13 10 -24 26 -30 39 -15 53 -12 81 16
19 19 23 28 14 37 -15 15 -14 50 1 65 9 9 9 12 0 12 -22 0 -12 37 13 48 33 15
42 15 27 0 -24 -24 -11 -27 24 -6 23 13 31 23 24 28 -8 5 -7 9 5 13 9 4 13 3
10 -3 -4 -6 6 -8 25 -6 17 2 33 0 36 -5 3 -5 -7 -9 -22 -9 -16 0 -41 -13 -65
-35 -22 -19 -37 -35 -35 -35 9 0 60 30 51 30 -20 1 40 29 63 30 12 0 22 5 22
10 0 6 8 10 18 11 11 1 9 4 -8 9 l-25 8 25 1 c14 1 35 -6 46 -14 28 -19 48
-94 40 -147 -5 -35 -4 -39 5 -24 7 11 12 39 12 62 0 24 3 41 8 39 4 -3 17 8
29 25 12 16 32 33 45 36 13 3 26 12 28 18 4 10 30 13 91 12 96 -2 126 -18 126
-68 0 -26 12 -35 44 -29 5 1 5 -4 -1 -11 -11 -12 9 -15 70 -9 20 2 3 30 -20
34 -22 3 -20 4 11 6 28 1 37 5 33 15 -3 8 1 17 10 20 19 8 14 14 52 -60 89
-173 74 -317 -43 -403 -81 -60 -190 -111 -171 -80 6 9 3 10 -11 5 -48 -19
-162 -18 -279 3 -135 25 -168 34 -242 67 -28 13 -54 24 -58 24 -3 0 -11 4 -18
10 -96 77 -127 122 -127 188 0 37 -1 38 -33 34 -52 -6 -105 21 -123 63 -11 27
-12 40 -3 56 9 18 8 20 -8 15 -10 -3 -37 -10 -61 -15 -24 -5 -45 -11 -48 -13
-2 -3 -8 -27 -13 -54 -5 -27 -17 -65 -25 -85 -15 -35 -18 -37 -76 -44 -33 -4
-60 -11 -60 -15 0 -5 17 -6 38 -3 65 11 65 11 68 -34 5 -102 108 -347 210
-503 64 -98 62 -95 69 -88 6 6 -2 21 -83 146 -49 76 -126 244 -156 340 -27 86
-31 112 -18 112 7 0 41 81 63 155 l12 39 49 -53 c63 -68 149 -183 218 -291 89
-138 158 -231 215 -290 95 -99 175 -160 210 -160 l27 0 -31 26 c-40 34 -39 44
4 37 21 -3 35 -1 35 5 0 12 -24 22 -51 22 -47 0 -132 51 -196 117 -58 61 -233
307 -233 328 0 5 -10 20 -23 34 -35 39 -79 111 -67 111 5 0 10 6 10 13 0 6 13
12 30 13 26 1 30 -2 30 -25 0 -78 59 -167 137 -207 21 -10 45 -28 54 -38 9
-10 29 -20 45 -21 16 -2 91 -12 167 -24 77 -11 141 -21 144 -21 2 0 1 -5 -3
-12 -5 -8 20 -10 102 -4 60 3 119 9 131 12 19 5 22 3 18 -15 -2 -12 -7 -26
-11 -33 -4 -7 -3 -8 4 -4 17 10 15 -4 -4 -25 -8 -9 -16 -26 -17 -38 -1 -11 -4
-21 -7 -21 -3 0 -6 -9 -7 -20 -3 -33 6 -23 34 40 26 56 43 75 43 49 0 -7 6
-17 14 -23 20 -16 30 -95 12 -102 -7 -3 -13 -16 -13 -29 0 -14 3 -23 6 -20 18
11 35 -18 39 -69 4 -48 7 -56 25 -56 19 0 20 4 14 93 -4 50 -14 124 -22 162
-9 39 -19 88 -22 110 -5 37 -3 42 22 53 22 10 30 10 43 0 9 -7 13 -8 10 -3 -6
10 19 53 25 44 4 -5 83 -327 98 -402 7 -31 16 -57 21 -57 5 0 7 8 4 18 -2 9
-14 60 -25 112 -29 133 -75 312 -85 328 -13 21 4 29 77 35 l67 6 0 -33 c0 -34
20 -59 55 -69 11 -3 59 -17 108 -30 l87 -25 0 23 c0 20 -9 26 -57 40 -182 52
-173 48 -173 75 0 46 -13 54 -63 41 -65 -16 -70 -15 -63 12 36 116 38 131 26
189 -11 50 -10 59 4 73 22 22 20 42 -9 97 -14 26 -25 56 -25 66 0 11 -16 49
-35 86 -27 52 -35 79 -35 120 0 28 -6 61 -14 72 -8 11 -17 53 -20 93 -4 72 -6
74 -48 112 -24 21 -49 39 -55 39 -7 0 -13 5 -13 10 0 6 -12 16 -27 22 -16 7
-43 25 -61 40 -18 15 -37 28 -43 28 -5 0 -39 14 -75 31 -56 26 -75 30 -132 27
-37 -1 -80 0 -97 4 -16 4 -39 3 -50 -2z m210 -20 c3 -5 -1 -10 -9 -10 -9 0
-16 5 -16 10 0 6 4 10 9 10 6 0 13 -4 16 -10z m-25 -50 c0 -5 -5 -10 -11 -10
-5 0 -7 5 -4 10 3 6 8 10 11 10 2 0 4 -4 4 -10z m-181 -181 c10 -12 33 -23 56
-26 22 -2 59 -11 82 -19 30 -10 50 -11 68 -4 15 6 42 10 60 10 24 0 45 9 68
30 l34 30 54 -43 c85 -65 96 -78 119 -137 28 -69 41 -230 19 -230 -11 0 -11
-2 1 -10 12 -8 10 -10 -10 -11 l-25 -1 25 -8 c21 -7 22 -8 5 -9 -12 -1 -26 4
-32 10 -8 8 -17 4 -33 -13 -19 -21 -22 -22 -34 -6 -6 9 -25 24 -42 35 -17 10
-46 28 -65 40 -52 34 -84 30 -161 -23 -37 -26 -70 -55 -73 -65 -8 -25 -22 -24
-30 1 -4 11 -18 27 -33 35 -23 12 -24 14 -7 15 l20 1 -20 9 c-18 7 -17 8 10
15 38 10 87 44 80 55 -3 5 -12 7 -20 3 -8 -3 -15 0 -15 6 0 24 -29 10 -32 -16
-2 -14 -8 -28 -14 -30 -13 -4 -76 37 -81 54 -7 21 59 25 132 7 98 -23 187 -33
207 -23 11 6 18 4 21 -6 4 -8 20 -21 37 -30 l31 -16 -3 28 c-2 23 -7 27 -25
25 -13 -2 -23 1 -23 6 0 6 19 13 43 17 23 3 54 8 70 11 36 7 35 -10 -3 -48
-17 -17 -29 -33 -26 -35 3 -3 19 9 36 26 21 20 30 39 28 53 -3 21 -7 23 -61
20 -40 -2 -57 0 -52 7 3 6 17 11 31 11 13 0 24 5 24 10 0 6 -7 10 -16 10 -23
0 -11 24 14 28 13 2 35 -7 53 -23 35 -29 43 -28 34 6 -8 30 -34 62 -62 78 -32
17 -42 14 -54 -16 -18 -48 -80 -134 -104 -145 -32 -14 -124 7 -155 36 -14 12
-34 36 -45 51 -36 53 -83 95 -104 95 -24 0 -101 -66 -101 -86 0 -8 -4 -14 -10
-14 -5 0 -10 -9 -10 -20 0 -11 -5 -29 -12 -40 -14 -23 -6 -35 16 -23 14 8 16
12 16 32 0 5 9 13 21 16 11 4 18 12 16 18 -4 12 40 36 76 43 17 4 67 -39 67
-57 0 -5 -22 -9 -48 -9 -26 0 -53 -5 -60 -12 -19 -19 -14 -52 11 -68 21 -14
20 -15 -32 -21 -29 -4 -57 -12 -61 -19 -4 -6 -16 -12 -28 -13 -11 0 -25 -11
-31 -24 l-10 -22 35 19 c40 23 44 24 44 10 0 -5 -24 -22 -52 -36 -29 -15 -55
-30 -58 -35 -15 -23 -2 172 15 225 17 55 18 61 2 88 l-16 29 44 21 c47 23 55
37 30 58 -22 18 -18 28 13 34 15 4 41 15 57 26 38 25 43 25 64 -1z m-364 1 c3
-5 1 -10 -4 -10 -6 0 -11 5 -11 10 0 6 2 10 4 10 3 0 8 -4 11 -10z m1055 -420
c0 -5 -4 -10 -10 -10 -5 0 -10 5 -10 10 0 6 5 10 10 10 6 0 10 -4 10 -10z
m-895 -90 c3 -5 2 -10 -4 -10 -5 0 -13 5 -16 10 -3 6 -2 10 4 10 5 0 13 -4 16
-10z m-63 -62 c-6 -6 -15 -8 -19 -4 -4 4 -1 11 7 16 19 12 27 3 12 -12z m-220
-16 c3 -15 8 -36 12 -47 5 -11 -6 -4 -24 18 -18 20 -39 37 -48 37 -25 0 2 15
31 18 20 1 26 -4 29 -26z m288 0 c0 -10 -22 -32 -32 -32 -5 0 -3 9 4 20 13 20
28 27 28 12z"/>
<path d="M695 1335 l-30 -14 30 6 c17 3 41 10 55 14 l25 7 -25 1 c-14 0 -38
-6 -55 -14z"/>
<path d="M1039 1307 c-16 -21 -17 -22 -37 -4 -20 19 -22 18 -58 -9 -32 -25
-35 -30 -19 -39 50 -30 50 -31 16 -51 -17 -10 -30 -22 -28 -27 1 -5 19 -18 40
-30 l37 -21 31 23 31 23 14 -21 c20 -28 26 -27 48 14 18 33 18 36 2 54 -17 19
-17 21 3 50 12 17 32 37 44 46 13 9 16 15 8 15 -8 0 -23 -7 -33 -17 -16 -14
-22 -14 -46 -2 -15 7 -29 14 -32 16 -3 1 -12 -8 -21 -20z m45 -10 c25 -19 15
-45 -40 -101 -50 -50 -60 -53 -89 -32 -18 13 -17 16 32 60 29 26 55 56 58 66
7 23 15 25 39 7z m-87 -12 c12 -12 13 -19 3 -30 -15 -18 -20 -18 -44 0 -20 15
-20 15 0 30 24 18 22 18 41 0z m107 -81 c5 -14 -9 -54 -19 -54 -2 0 -9 9 -15
21 -9 15 -8 24 1 35 15 18 25 18 33 -2z"/>
<path d="M725 1311 c-11 -5 -29 -19 -40 -32 l-20 -23 32 22 c34 24 81 28 116
11 21 -10 21 -9 -2 10 -24 22 -52 25 -86 12z"/>
<path d="M1175 1298 c-26 -15 -44 -39 -44 -58 0 -8 7 -2 17 13 9 16 29 31 45
34 15 3 27 9 27 14 0 12 -21 11 -45 -3z"/>
<path d="M765 1160 c-18 -8 -17 -9 8 -9 15 -1 27 4 27 9 0 12 -8 12 -35 0z"/>
<path d="M356 998 c-9 -12 -16 -36 -15 -53 l1 -30 7 31 c10 41 19 54 37 54 8
0 12 5 9 10 -10 16 -23 12 -39 -12z"/>
<path d="M382 974 c-12 -8 -22 -25 -22 -37 1 -20 2 -20 16 5 9 17 20 25 29 22
8 -4 15 -1 15 4 0 19 -16 21 -38 6z"/>
<path d="M402 933 c-7 -3 -19 -18 -28 -35 -14 -27 -14 -32 2 -55 15 -25 15
-26 -1 -20 -11 5 -15 3 -12 -5 4 -12 35 -13 46 -2 3 2 -5 14 -16 27 -24 25
-17 58 14 75 19 11 16 22 -5 15z"/>
<path d="M778 933 c7 -3 16 -2 19 1 4 3 -2 6 -13 5 -11 0 -14 -3 -6 -6z"/>
<path d="M1007 929 c-9 -6 -17 -21 -17 -34 0 -19 5 -25 23 -25 25 0 47 17 47
37 0 19 -33 33 -53 22z"/>
<path d="M1107 927 c-16 -11 -16 -14 -3 -32 14 -19 16 -19 33 -2 15 15 16 19
2 32 -12 13 -18 13 -32 2z"/>
<path d="M765 910 c-22 -4 -32 -8 -23 -9 28 -2 11 -25 -32 -44 -22 -9 -40 -21
-40 -27 0 -15 8 -12 41 11 16 11 29 16 29 10 0 -18 -48 -43 -70 -36 -11 3 -20
2 -20 -3 0 -13 30 -12 70 3 35 13 36 13 35 -11 0 -14 -7 -29 -15 -34 -23 -15
-7 -12 35 6 29 12 35 18 24 24 -10 7 -5 13 21 24 39 17 26 22 -16 6 -24 -9
-25 -9 -14 5 7 8 18 15 26 15 7 0 15 4 18 9 6 9 -16 62 -24 60 -3 -1 -23 -5
-45 -9z"/>
<path d="M689 873 c-13 -15 -12 -15 11 -3 34 17 36 20 18 20 -9 0 -22 -7 -29
-17z"/>
<path d="M585 840 c-3 -5 -1 -10 4 -10 6 0 11 5 11 10 0 6 -2 10 -4 10 -3 0
-8 -4 -11 -10z"/>
<path d="M1279 823 c-13 -17 -13 -17 6 -3 11 8 22 16 24 17 2 2 0 3 -6 3 -6 0
-17 -8 -24 -17z"/>
<path d="M1005 792 c-80 -34 -215 -114 -215 -128 0 -6 59 29 105 61 52 38 208
95 260 95 40 0 52 -5 81 -34 21 -21 34 -44 34 -60 l0 -26 -20 20 c-25 25 -86
26 -185 4 -38 -9 -96 -21 -127 -28 -76 -15 -83 -26 -17 -26 30 0 81 -7 115
-15 72 -17 123 -12 178 17 23 11 48 24 56 28 8 4 16 19 18 34 3 21 -5 36 -33
62 -34 31 -41 34 -98 34 -49 -1 -82 -9 -152 -38z m44 -111 c23 -15 -3 -19 -39
-5 l-35 12 30 1 c17 0 36 -3 44 -8z"/>
<path d="M609 781 c-13 -11 -21 -22 -18 -25 3 -3 16 5 29 19 28 30 22 33 -11
6z"/>
<path d="M680 780 c-12 -8 -11 -10 7 -10 12 0 25 5 28 10 8 13 -15 13 -35 0z"/>
<path d="M636 754 c-11 -7 -18 -16 -15 -18 2 -2 13 2 23 10 11 7 18 16 15 18
-2 2 -13 -2 -23 -10z"/>
<path d="M854 635 c11 -8 24 -15 29 -15 5 0 23 -12 41 -27 51 -43 105 -63 174
-63 73 0 123 19 142 55 20 38 4 41 -35 6 -51 -44 -94 -42 -241 14 -129 49
-139 52 -110 30z"/>
<path d="M0 600 c0 -6 7 -10 15 -10 8 0 15 2 15 4 0 2 -7 6 -15 10 -8 3 -15 1
-15 -4z"/>
<path d="M840 460 c8 -5 20 -10 25 -10 6 0 3 5 -5 10 -8 5 -19 10 -25 10 -5 0
-3 -5 5 -10z"/>
<path d="M895 438 c13 -8 63 -13 150 -14 l130 -2 -120 8 c-66 4 -133 10 -150
14 -27 7 -28 6 -10 -6z"/>
<path d="M680 391 c0 -6 4 -13 10 -16 6 -3 7 1 4 9 -7 18 -14 21 -14 7z"/>
<path d="M710 379 c0 -5 5 -7 10 -4 6 3 10 8 10 11 0 2 -4 4 -10 4 -5 0 -10
-5 -10 -11z"/>
<path d="M1406 377 c3 -10 9 -15 12 -12 3 3 0 11 -7 18 -10 9 -11 8 -5 -6z"/>
<path d="M1386 367 c3 -10 9 -15 12 -12 3 3 0 11 -7 18 -10 9 -11 8 -5 -6z"/>
<path d="M850 360 c25 -8 117 -13 109 -6 -2 2 -33 6 -69 9 -40 3 -56 2 -40 -3z"/>
<path d="M698 353 c7 -3 16 -2 19 1 4 3 -2 6 -13 5 -11 0 -14 -3 -6 -6z"/>
<path d="M1798 319 c-10 -6 -18 -17 -18 -26 0 -11 -6 -14 -27 -8 -23 5 -25 4
-14 -9 15 -18 73 -15 79 4 3 9 0 10 -9 4 -12 -7 -12 -5 -1 9 19 22 12 39 -10
26z"/>
<path d="M1397 300 c3 -11 7 -20 9 -20 2 0 4 9 4 20 0 11 -4 20 -9 20 -5 0 -7
-9 -4 -20z"/>
<path d="M1420 300 c0 -5 5 -10 11 -10 5 0 7 5 4 10 -3 6 -8 10 -11 10 -2 0
-4 -4 -4 -10z"/>
<path d="M833 273 c9 -9 20 -13 24 -9 4 4 1 11 -7 16 -25 16 -35 11 -17 -7z"/>
<path d="M255 270 c3 -5 8 -10 11 -10 2 0 4 5 4 10 0 6 -5 10 -11 10 -5 0 -7
-4 -4 -10z"/>
<path d="M1410 235 c0 -5 5 -17 10 -25 5 -8 10 -10 10 -5 0 6 -5 17 -10 25 -5
8 -10 11 -10 5z"/>
<path d="M280 221 c0 -5 5 -13 10 -16 6 -3 10 -2 10 4 0 5 -4 13 -10 16 -5 3
-10 2 -10 -4z"/>
<path d="M1441 214 c0 -11 3 -14 6 -6 3 7 2 16 -1 19 -3 4 -6 -2 -5 -13z"/>
<path d="M0 169 c0 -14 14 -41 30 -61 17 -20 37 -53 45 -72 19 -46 40 -48 31
-3 -6 31 -64 125 -92 148 -11 9 -14 7 -14 -12z"/>
<path d="M1432 160 c0 -14 2 -19 5 -12 2 6 2 18 0 25 -3 6 -5 1 -5 -13z"/>
<path d="M320 164 c0 -13 18 -39 24 -34 2 3 -2 14 -10 24 -8 11 -14 16 -14 10z"/>
<path d="M1227 146 c-11 -8 -14 -17 -8 -20 5 -4 13 -1 17 5 4 8 9 7 15 -2 6
-10 9 -8 9 9 0 25 -7 27 -33 8z"/>
<path d="M1462 140 c0 -14 2 -19 5 -12 2 6 2 18 0 25 -3 6 -5 1 -5 -13z"/>
<path d="M1164 114 c-18 -14 -18 -15 4 -4 12 6 22 13 22 15 0 8 -5 6 -26 -11z"/>
<path d="M359 92 c6 -12 16 -24 22 -28 8 -4 8 -1 0 14 -6 12 -16 24 -22 28 -8
4 -8 1 0 -14z"/>
<path d="M400 82 c0 -12 19 -26 26 -19 2 2 -2 10 -11 17 -9 8 -15 8 -15 2z"/>
<path d="M1470 76 c0 -8 4 -17 9 -20 5 -4 7 3 4 14 -6 23 -13 26 -13 6z"/>
<path d="M955 60 c3 -5 13 -10 21 -10 8 0 12 5 9 10 -3 6 -13 10 -21 10 -8 0
-12 -4 -9 -10z"/>
<path d="M410 20 c6 -11 16 -20 22 -20 6 0 3 9 -7 20 -10 11 -20 20 -22 20 -2
0 1 -9 7 -20z"/>
<path d="M1456 27 c3 -10 9 -15 12 -12 3 3 0 11 -7 18 -10 9 -11 8 -5 -6z"/>
</g>
</svg>
