<?xml version="1.0" standalone="no"?>
<!DOCTYPE svg PUBLIC "-//W3C//DTD SVG 20010904//EN"
 "http://www.w3.org/TR/2001/REC-SVG-20010904/DTD/svg10.dtd">
<svg version="1.0" xmlns="http://www.w3.org/2000/svg"
 width="1378.000000pt" height="424.000000pt" viewBox="0 0 1378.000000 424.000000"
 preserveAspectRatio="xMidYMid meet">

<g transform="translate(0.000000,424.000000) scale(0.100000,-0.100000)"
fill="#000000" stroke="none">
<path d="M1975 4134 c-239 -37 -473 -129 -688 -270 -91 -60 -271 -241 -316
-316 -100 -171 -125 -351 -71 -505 10 -29 39 -82 64 -117 94 -132 208 -211
531 -371 138 -68 286 -147 330 -176 107 -71 252 -217 293 -295 83 -160 79
-337 -14 -514 -128 -245 -397 -372 -789 -373 -174 -1 -268 15 -396 68 -161 65
-329 206 -387 325 -55 114 -61 245 -15 363 22 57 27 62 91 99 80 45 134 102
130 136 -3 27 -4 27 -73 26 -59 0 -83 -6 -148 -37 -246 -114 -385 -296 -404
-529 -12 -153 38 -285 154 -409 207 -219 494 -313 861 -280 279 25 478 80 712
198 181 91 306 180 436 308 191 189 274 365 274 580 0 160 -52 278 -179 406
-112 112 -242 197 -479 310 -237 114 -250 121 -350 186 -115 76 -204 168 -249
260 -31 63 -37 87 -41 158 -6 112 27 222 98 328 73 109 146 157 295 193 86 22
322 25 410 6 162 -35 305 -101 360 -165 65 -75 73 -128 49 -329 -6 -56 -6 -57
20 -64 36 -9 143 27 210 70 113 72 159 164 159 316 0 107 -21 176 -72 228
-149 153 -498 234 -806 186z"/>
<path d="M9208 4036 c-101 -36 -192 -115 -186 -162 3 -26 8 -30 53 -37 181
-28 267 -68 371 -171 248 -248 357 -737 341 -1531 -8 -391 -35 -697 -94 -1062
-25 -161 -25 -209 2 -219 32 -13 290 189 641 501 706 627 1177 1250 1359 1798
49 148 67 247 68 377 2 187 -40 306 -144 405 -75 72 -151 107 -243 113 -62 4
-75 1 -98 -18 -39 -30 -107 -172 -121 -253 -10 -62 -9 -69 9 -94 16 -21 37
-31 90 -44 198 -45 302 -155 312 -329 8 -140 -46 -270 -220 -530 -186 -277
-400 -532 -685 -810 -218 -214 -598 -548 -610 -536 -3 2 3 66 11 143 35 309
48 533 49 833 0 329 -9 469 -49 709 -102 615 -353 932 -739 930 -44 0 -96 -6
-117 -13z"/>
<path d="M12537 3979 c-74 -17 -124 -54 -262 -190 l-140 -138 34 -35 34 -35
65 65 c78 77 180 132 264 141 75 8 163 -20 299 -95 178 -98 203 -107 299 -107
120 0 154 19 318 179 74 72 138 138 143 148 7 13 1 23 -26 44 l-36 27 -57 -57
c-115 -113 -203 -152 -325 -143 -64 4 -85 12 -237 90 -222 113 -276 129 -373
106z"/>
<path d="M5675 2967 c-122 -58 -235 -247 -309 -517 -32 -117 -33 -155 -5 -170
11 -7 27 -9 34 -6 29 11 67 87 95 193 68 255 154 395 261 423 71 20 133 -15
158 -89 17 -52 13 -162 -10 -274 -11 -56 -85 -358 -164 -672 -79 -314 -151
-610 -161 -659 -16 -84 -16 -90 1 -121 24 -45 90 -80 136 -71 48 9 96 40 119
78 11 18 62 206 115 418 221 894 215 876 321 1036 81 123 191 221 316 282 121
59 186 76 288 76 79 -1 136 -21 172 -61 61 -68 84 -227 54 -386 -9 -49 -136
-570 -282 -1158 -239 -967 -264 -1073 -254 -1108 16 -59 41 -76 114 -76 76 0
116 25 151 95 16 31 125 447 291 1107 247 981 267 1066 272 1166 10 226 -58
376 -206 455 -93 50 -176 65 -322 59 -184 -7 -325 -58 -461 -167 -60 -47 -179
-176 -179 -192 0 -5 -4 -8 -9 -8 -4 0 -11 17 -14 38 -17 125 -107 247 -219
297 -52 24 -80 30 -158 32 -84 4 -101 1 -145 -20z"/>
<path d="M12746 2974 c-229 -45 -416 -151 -606 -344 -281 -284 -416 -605 -397
-940 10 -165 52 -290 141 -415 149 -209 376 -299 666 -265 185 21 365 94 520
211 158 119 346 341 430 508 76 153 120 338 120 510 0 243 -67 417 -218 568
-83 84 -194 144 -308 168 -85 18 -256 18 -348 -1z m310 -105 c62 -23 144 -94
179 -154 14 -23 35 -80 46 -126 19 -72 21 -102 16 -209 -13 -294 -124 -672
-263 -898 -57 -92 -215 -253 -295 -300 -104 -61 -162 -77 -284 -77 -100 0
-115 2 -167 28 -104 51 -169 136 -203 268 -51 193 34 675 170 966 183 391 524
605 801 502z"/>
<path d="M3830 2925 c-90 -18 -201 -58 -279 -101 -257 -140 -522 -465 -624
-764 -94 -276 -82 -543 34 -748 52 -91 172 -205 261 -247 303 -144 708 -39
1024 267 221 214 345 467 376 767 20 197 -18 404 -97 536 l-33 54 292 3 c263
3 295 5 330 22 47 24 76 69 76 119 0 51 -15 76 -55 93 -48 20 -1206 19 -1305
-1z m290 -266 c126 -43 199 -148 220 -318 23 -178 -50 -533 -150 -732 -85
-168 -243 -349 -372 -427 -100 -60 -161 -76 -283 -77 -99 0 -116 3 -167 27
-195 91 -263 293 -213 637 63 428 270 766 537 872 136 54 301 61 428 18z"/>
</g>
</svg>
